<svg xmlns="http://www.w3.org/2000/svg" width="16" height="16" viewBox="0 0 16 16">
    <g fill="none" fill-rule="evenodd">
        <path d="M0 0h16v16H0z"/>
        <path fill="#B2BAC2" d="M8.136 12.446c-.352-.195-.922-.195-1.274 0l-2.537 1.397c-.704.386-1.164.033-1.03-.786L3.78 10.1c.067-.41-.109-.978-.395-1.27L1.334 6.736c-.57-.582-.391-1.15.394-1.27l2.835-.43c.393-.061.855-.412 1.03-.786l1.268-2.691c.353-.746.924-.744 1.275 0l1.27 2.691c.175.374.637.726 1.031.785l2.836.432c.786.119.962.69.393 1.27L11.614 8.83c-.285.292-.462.86-.395 1.27l.485 2.957c.135.822-.329 1.172-1.03.786l-2.538-1.397z"/>
    </g>
</svg>
