<?xml version="1.0" encoding="UTF-8" standalone="no"?>
<svg width="98px" height="38px" viewBox="0 0 98 38" version="1.1" xmlns="http://www.w3.org/2000/svg" xmlns:xlink="http://www.w3.org/1999/xlink">
    <!-- Generator: Sketch 3.8.3 (29802) - http://www.bohemiancoding.com/sketch -->
    <title>Slice 16</title>
    <desc>Created with Sketch.</desc>
    <defs></defs>
    <g id="0.1" stroke="none" stroke-width="1" fill="none" fill-rule="evenodd">
        <g id="Group-14" transform="translate(1.000000, 5.000000)" fill="#006CFF">
            <path d="M21.2934328,2.58313049 L18.0173984,0 L14.594624,2.69887801 L14.4172077,2.84182304 L18.0173984,5.71242483 L21.6286578,2.84182304 L21.2934328,2.58313049 Z M33.7078289,12.6006674 L18.0079109,24.980276 L2.31748044,12.6082574 L0,14.4697052 L18.0079109,28.6690167 L36.0256256,14.4621152 L33.7078289,12.6006674 Z M18.0079109,13.6050776 L9.46441554,6.86863505 L7.14661885,8.7300829 L18.0079109,17.2941345 L28.8783742,8.7224929 L26.5605775,6.86104505 L18.0079109,13.6050776 Z" id="Fill-1-Copy"></path>
            <path d="M88.8618403,27.8393735 L91.9214126,27.8393735 L92.1844947,27.8393735 L92.1844947,28.1024555 L92.1844947,29.3033419 L92.1844947,29.566424 L91.9214126,29.566424 L75.1024555,29.566424 L74.8393735,29.566424 L74.8393735,29.3033419 L74.8393735,28.1024555 L74.8393735,27.8393735 L75.1024555,27.8393735 L77.6252345,27.8393735 L75.8120684,17.2478736 L75.7673526,16.986669 L76.0288758,16.943856 L77.2385937,16.7458177 L77.4963338,16.7036241 L77.5404055,16.9610497 L79.402792,27.8393735 L82.2632064,27.8393735 L82.2632064,14.7187581 L74.1744764,14.7187581 L73.9113943,14.7187581 L73.9113943,14.4556761 L73.9113943,13.2547897 L73.9113943,12.9917076 L74.1744764,12.9917076 L82.2632064,12.9917076 L82.2632064,7.29492522 L76.9584138,7.29492522 L76.6953317,7.29492522 L76.6953317,7.03184314 L76.6953317,5.83095677 L76.6953317,5.56787469 L76.9584138,5.56787469 L89.5414572,5.56787469 L89.8045393,5.56787469 L89.8045393,5.83095677 L89.8045393,7.03184314 L89.8045393,7.29492522 L89.5414572,7.29492522 L84.0158162,7.29492522 L84.0158162,12.9917076 L93.0988446,12.9917076 L93.3619267,12.9917076 L93.3619267,13.2547897 L93.3619267,14.4556761 L93.3619267,14.7187581 L93.0988446,14.7187581 L84.0158162,14.7187581 L84.0158162,27.8393735 L87.0843016,27.8393735 L88.9459765,16.9610687 L88.9900346,16.7036241 L89.247791,16.7458204 L90.4575089,16.9438587 L90.7190156,16.9866689 L90.6743192,17.2478598 L88.8618403,27.8393735 Z M64.301793,27.2770209 L64.301793,18.8223716 L68.3298261,18.8223716 L68.5929081,18.8223716 L68.5929081,18.5592895 L68.5929081,9.9513241 L68.5929081,9.68824202 L68.3298261,9.68824202 L67.1033804,9.68824202 L66.8402983,9.68824202 L66.8402983,9.9513241 L66.8402983,17.0953211 L64.301793,17.0953211 L64.301793,9.41267429 L64.301793,9.14959222 L64.0387109,9.14959222 L62.8122653,9.14959222 L62.5491832,9.14959222 L62.5491832,9.41267429 L62.5491832,17.0953211 L60.0503682,17.0953211 L60.0503682,9.9513241 L60.0503682,9.68824202 L59.7872861,9.68824202 L58.5600801,9.68824202 L58.296998,9.68824202 L58.296998,9.9513241 L58.296998,18.5592895 L58.296998,18.8223716 L58.5600801,18.8223716 L62.5491832,18.8223716 L62.5491832,27.2770209 L60.0503682,27.2770209 L60.0503682,20.2461887 L60.0503682,19.9831066 L59.7872861,19.9831066 L58.5600801,19.9831066 L58.296998,19.9831066 L58.296998,20.2461887 L58.296998,28.7409894 L58.296998,29.0040715 L58.5600801,29.0040715 L68.3298261,29.0040715 L68.5929081,29.0040715 L68.5929081,28.7409894 L68.5929081,20.2461887 L68.5929081,19.9831066 L68.3298261,19.9831066 L67.1033804,19.9831066 L66.8402983,19.9831066 L66.8402983,20.2461887 L66.8402983,27.2770209 L64.301793,27.2770209 Z M49.6680063,18.823482 L48.4286733,20.0397402 L48.244853,20.2201381 L48.0605916,20.0401907 L47.1922712,19.1921997 L47,19.00443 L47.1918235,18.8162031 L49.6680063,16.3864478 L49.6680063,6.30672341 L47.7679667,6.30672341 L47.5048846,6.30672341 L47.5048846,6.04364133 L47.5048846,4.84275495 L47.5048846,4.57967287 L47.7679667,4.57967287 L49.6680063,4.57967287 L49.6680063,0.263305431 L49.6680063,0.000223351462 L49.9310883,0.000223351462 L51.1582943,0.000223351462 L51.4213764,0.000223351462 L51.4213764,0.263305431 L51.4213764,4.57967287 L53.6880571,4.57967287 L53.9511392,4.57967287 L53.9511392,4.84275495 L53.9511392,6.04364133 L53.9511392,6.30672341 L53.6880571,6.30672341 L51.4213764,6.30672341 L51.4213764,14.6659526 L52.8898915,13.2249715 L53.0737922,13.0445189 L53.2580431,13.2246138 L54.1256033,14.0726048 L54.3176952,14.2603639 L54.125981,14.4485086 L51.4213764,17.1027572 L51.4213764,20.8339753 C51.4213764,22.7386358 51.1258517,24.5627663 50.6304813,26.2478566 C50.3264616,27.2820334 50.0227091,28.0349932 49.7849577,28.5197491 L49.5165539,29.0595151 L49.4014387,29.2910143 L49.1679704,29.1799471 L48.0662223,28.6558157 L47.8252995,28.5412021 L47.9432787,28.3019095 L48.2098848,27.7611682 C48.2482302,27.6841985 48.3364022,27.48657 48.4396486,27.2283856 C48.6109045,26.8001324 48.782007,26.3103051 48.9415031,25.7671165 C49.3957929,24.2199632 49.6680063,22.5541545 49.6680063,20.8339753 L49.6680063,18.823482 Z M55.2766335,29.1572957 L55.3294613,28.9015709 L55.4511174,28.3126675 C56.1825657,24.7745524 56.4569205,17.0928703 56.4252428,7.73818294 L69.0835624,7.73818294 L69.0835624,0 L54.8475158,0 L54.5784991,0 L54.5844992,0.268949874 L54.5981855,0.882421896 C54.6110765,1.4672586 54.6320628,2.76307976 54.6476154,4.32023662 C54.6732287,6.88468506 54.6782071,9.54256726 54.6541121,12.1571012 C54.5856365,19.5873289 54.2997281,25.2277723 53.7329716,27.9679155 L53.6120103,28.5563919 L53.558697,28.8157617 L53.8184068,28.8673933 L55.0205212,29.1063793 L55.2766335,29.1572957 Z M56.4199167,6.01113241 L56.3628524,1.72705053 L67.3309526,1.72705053 L67.3309526,6.01113241 L56.4199167,6.01113241 Z M92.806188,7.81254495 L92.9830444,7.62514101 L93.8156284,6.74290273 L94,6.54753548 L93.8008293,6.36727941 L86.8405791,0.0680236108 L86.6640448,0 L79.3905301,0 L79.2139852,0.0680332063 L72.2544954,6.367289 L72.0554361,6.5474639 L72.2396245,6.74281545 L73.0714481,7.62505374 L73.2482896,7.81261311 L73.4394089,7.63962508 L80.0468563,1.72705053 L86.0084678,1.72705053 L92.6151549,7.63961497 L92.806188,7.81254495 Z" id="Combined-Shape"></path>
        </g>
    </g>
</svg>