<svg width="24" height="24" viewBox="0 0 24 24" xmlns="http://www.w3.org/2000/svg"><title>2DCDDB99-BF9A-4FAE-98F8-77B41DFB26F5</title><path d="M9.074 3C5.21 2.943 2 5.839 2 9.255c0 1.972.91 3.683 2.669 4.939 0 0-.645 2.171-.636 2.215.01.043.15.129.198.1.05-.027 2.332-1.416 2.332-1.416 1.749.613 2.769.409 2.827.405a4.614 4.614 0 0 1-.159-2.099c.682-4.005 4.702-5.251 6.905-5.039-.608-2.892-3.25-5.3-7.062-5.358zm6.725 5.84c-3.407 0-6.125 2.292-6.125 5.218 0 2.932 2.585 5.359 6.13 5.379.713.004 1.775-.183 2.491-.489 0 0 1.713 1.06 1.81 1.052a.16.16 0 0 0 .148-.152c.004-.066-.546-1.72-.546-1.72 1.47-1.175 2.085-2.47 2.085-4.12 0-2.927-2.775-5.169-5.993-5.169zM6.39 6.288a.927.927 0 0 0-.918.936c0 .517.41.936.918.936.506 0 .917-.419.917-.936a.927.927 0 0 0-.917-.936zm5.555 0a.927.927 0 0 0-.918.936c0 .517.411.936.918.936.507 0 .918-.419.918-.936a.927.927 0 0 0-.918-.936zm1.612 4.979a.821.821 0 0 0-.811.83c0 .458.363.83.811.83a.821.821 0 0 0 .812-.83.821.821 0 0 0-.812-.83zm4.342 0a.821.821 0 0 0-.812.83c0 .458.363.83.812.83a.821.821 0 0 0 .812-.83.821.821 0 0 0-.812-.83z" fill="#00C80C" fill-rule="evenodd"/></svg>