<svg width="24" height="24" viewBox="0 0 24 24" xmlns="http://www.w3.org/2000/svg"><title>163C1ED0-4043-4DC2-A0E4-4D542621E6B3</title><g fill="#D52B2A" fill-rule="evenodd"><path d="M17.275 11.183c-.267-.077-.45-.13-.31-.47.303-.737.334-1.373.005-1.827-.615-.851-2.3-.805-4.232-.023 0 0-.606.257-.451-.208.297-.924.252-1.699-.21-2.145-1.048-1.015-3.834.038-6.224 2.35-1.79 1.73-2.828 3.566-2.828 5.152 0 3.036 4.022 4.88 7.958 4.88 5.16 0 8.591-2.9 8.591-5.202 0-1.391-1.21-2.18-2.299-2.507zm-6.281 6.622c-3.14.3-5.852-1.074-6.056-3.069-.204-1.994 2.178-3.854 5.318-4.155 3.14-.3 5.851 1.073 6.055 3.067.204 1.996-2.177 3.856-5.317 4.157zM20.701 5.629c-1.246-1.337-3.084-1.846-4.78-1.497a.703.703 0 0 0-.56.834c.084.38.47.622.863.54 1.207-.247 2.513.115 3.398 1.065a3.37 3.37 0 0 1 .747 3.379.698.698 0 0 0 .468.885c.381.12.79-.083.914-.452v-.002a4.739 4.739 0 0 0-1.05-4.752"/><path d="M18.788 7.3a2.495 2.495 0 0 0-2.329-.729.605.605 0 0 0-.48.719.624.624 0 0 0 .741.464c.404-.082.842.038 1.139.356.297.318.376.752.249 1.132a.602.602 0 0 0 .403.762.63.63 0 0 0 .787-.39 2.306 2.306 0 0 0-.51-2.315M11.307 12.117c-1.494-.377-3.183.344-3.832 1.618-.661 1.3-.022 2.742 1.488 3.213 1.564.488 3.407-.26 4.048-1.662.632-1.371-.157-2.783-1.704-3.17zm-1.14 3.318c-.304.469-.955.674-1.445.458-.483-.213-.625-.758-.321-1.215.3-.455.928-.658 1.415-.46.492.202.649.743.35 1.217zm1-1.243a.461.461 0 0 1-.543.193c-.187-.074-.246-.277-.14-.456a.455.455 0 0 1 .53-.192c.19.067.258.272.153.455z"/></g></svg>