<svg xmlns="http://www.w3.org/2000/svg" width="16" height="16" viewBox="0 0 16 16">
    <g fill="none" fill-rule="evenodd">
        <path d="M0 0h16v16H0z"/>
        <path fill="#B2BAC2" d="M4.234 6.693v7.243H2.881c-.486 0-.881-.492-.881-1.095V7.875c0-.63.412-1.182.88-1.182h1.354zm3.688-3.7C8.01 2.404 8.49 1.99 9.018 2c.754.015 1.204.663 1.36.983.284.585.292 1.549.097 2.167-.177.56-.586 1.296-.586 1.296h3.066c.324 0 .625.164.826.449.204.29.27.668.178 1.011l-1.387 5.183c-.126.499-.544.847-1.016.847H5.53V6.693c1.385-.309 2.236-2.632 2.392-3.7z"/>
    </g>
</svg>
